<?xml version="1.0" encoding="UTF-8"?> <!-- Generator: Adobe Illustrator 16.0.2, SVG Export Plug-In . SVG Version: 6.00 Build 0) --> <svg xmlns="http://www.w3.org/2000/svg" xmlns:xlink="http://www.w3.org/1999/xlink" id="Слой_1" x="0px" y="0px" width="283.46px" height="85.04px" viewBox="0 0 283.46 85.04" xml:space="preserve"> <path fill="#FFFFFF" d="M264.443,25.698c-3.5,0-6.348,2.846-6.348,6.348c0,3.5,2.848,6.349,6.348,6.349 c3.501,0,6.35-2.849,6.35-6.349C270.793,28.544,267.944,25.698,264.443,25.698 M264.443,37.537c-3.026,0-5.489-2.463-5.489-5.492 c0-3.027,2.463-5.491,5.489-5.491c3.028,0,5.491,2.463,5.491,5.491C269.935,35.074,267.472,37.537,264.443,37.537"></path> <path fill="#FFFFFF" d="M266.85,30.726c0-1.22-0.922-2.04-2.293-2.04h-2.42v6.719h0.897v-2.648h1.522c0.027,0,0.057,0,0.084-0.001 l1.755,2.649h1.068l-1.895-2.826C266.367,32.271,266.85,31.586,266.85,30.726 M263.034,31.936v-2.427h1.463 c0.874,0,1.438,0.478,1.438,1.217c0,0.724-0.567,1.21-1.412,1.21H263.034z"></path> <rect x="93.438" y="62.581" fill="#FFFFFF" width="30.328" height="2.808"></rect> <path fill="#FFFFFF" d="M72.322,26.72c3.239,0,5.847,0.921,7.822,2.763c1.976,1.843,2.964,4.264,2.964,7.265 c0,3.091-0.988,5.58-2.964,7.466c-1.975,1.887-4.583,2.83-7.822,2.83h-8.601v12.658h-3.387V26.72H72.322z M71.877,44.236 c2.347,0,4.218-0.676,5.615-2.028c1.397-1.352,2.097-3.126,2.097-5.326s-0.707-3.975-2.118-5.327 c-1.411-1.352-3.275-2.027-5.593-2.027h-8.156v14.708H71.877z"></path> <path fill="#FFFFFF" d="M149.918,42.452c2.258,0.536,4.04,1.532,5.349,2.987c1.308,1.457,1.96,3.211,1.96,5.261 c0,2.823-1.063,5.104-3.187,6.842c-2.124,1.737-4.94,2.606-8.445,2.606c-4.518,0-8.335-1.382-11.454-4.145l1.783-2.318 c2.495,2.437,5.66,3.656,9.492,3.656c2.465,0,4.464-0.61,5.995-1.829c1.53-1.216,2.295-2.82,2.295-4.813 c0-1.99-0.743-3.596-2.229-4.815c-1.484-1.218-3.462-1.827-5.927-1.827h-5.348v-2.585h4.19c2.346,0,4.226-0.564,5.638-1.693 c1.412-1.129,2.118-2.629,2.118-4.501c0-1.842-0.736-3.336-2.208-4.479c-1.47-1.145-3.425-1.716-5.859-1.716 c-2.794,0-5.334,1.026-7.622,3.075l-1.516-2.185c2.823-2.464,6.091-3.697,9.806-3.697c3.267,0,5.913,0.795,7.934,2.384 s3.03,3.677,3.03,6.262c0,1.753-0.507,3.274-1.516,4.567C153.185,40.781,151.76,41.771,149.918,42.452"></path> <polygon fill="#FFFFFF" points="192.232,26.72 195.888,26.72 180.868,59.704 177.214,59.704 181.313,50.7 169.77,26.72 173.38,26.72 183.141,47.179 "></polygon> <polygon fill="#FFFFFF" points="239.728,26.72 226.991,54.354 214.21,26.72 210.526,26.72 208.584,59.704 211.928,59.704 213.397,32.558 225.922,59.704 228.017,59.704 240.585,32.558 242.011,59.704 245.399,59.704 243.455,26.72 "></polygon> <polygon fill="#FFFFFF" points="101.635,47.044 108.647,30.821 115.618,47.044 119.104,47.044 110.207,26.721 106.997,26.721 98.099,47.044 "></polygon> <circle fill="#0C0E0F" cx="8.167" cy="59.504" r="0.142"></circle> </svg> 