<svg version="1.2" baseProfile="tiny-ps" xmlns="http://www.w3.org/2000/svg" viewBox="0 0 284 86" width="284" height="86">
	<title>photo (2)-svg</title>
	<style>
		tspan { white-space:pre }
		.shp0 { fill: #000000 } 
	</style>
	<path id="Layer" fill-rule="evenodd" class="shp0" d="M270.79 32.05C270.79 35.55 267.94 38.39 264.44 38.39C260.94 38.39 258.09 35.55 258.09 32.05C258.09 28.54 260.94 25.7 264.44 25.7C267.94 25.7 270.79 28.54 270.79 32.05ZM269.93 32.05C269.93 29.02 267.47 26.55 264.44 26.55C261.42 26.55 258.95 29.02 258.95 32.05C258.95 35.07 261.42 37.54 264.44 37.54C267.47 37.54 269.94 35.07 269.93 32.05ZM265.57 32.58L267.46 35.41L266.39 35.41L264.64 32.76C264.61 32.76 264.58 32.76 264.56 32.76L263.03 32.76L263.03 35.41L262.14 35.41L262.14 28.69L264.56 28.69C265.93 28.69 266.85 29.51 266.85 30.73C266.85 31.59 266.37 32.27 265.57 32.58ZM264.52 31.94C265.37 31.94 265.94 31.45 265.94 30.73C265.94 29.99 265.37 29.51 264.5 29.51L263.03 29.51L263.03 31.94L264.52 31.94ZM93.44 62.58L123.77 62.58L123.77 65.39L93.44 65.39L93.44 62.58ZM72.32 26.72C75.56 26.72 78.17 27.64 80.14 29.48C82.12 31.33 83.11 33.75 83.11 36.75C83.11 39.84 82.12 42.33 80.14 44.21C78.17 46.1 75.56 47.04 72.32 47.04L63.72 47.04L63.72 59.7L60.33 59.7L60.33 26.72L72.32 26.72ZM71.88 44.24C74.22 44.24 76.09 43.56 77.49 42.21C78.89 40.86 79.59 39.08 79.59 36.88C79.59 34.68 78.88 32.91 77.47 31.55C76.06 30.2 74.2 29.53 71.88 29.53L63.72 29.53L63.72 44.24L71.88 44.24ZM149.92 42.45C152.18 42.99 153.96 43.98 155.27 45.44C156.57 46.9 157.23 48.65 157.23 50.7C157.23 53.52 156.16 55.8 154.04 57.54C151.92 59.28 149.1 60.15 145.59 60.15C141.08 60.15 137.26 58.77 134.14 56L135.92 53.69C138.42 56.12 141.58 57.34 145.42 57.34C147.88 57.34 149.88 56.73 151.41 55.51C152.94 54.3 153.71 52.69 153.71 50.7C153.71 48.71 152.96 47.1 151.48 45.88C149.99 44.67 148.01 44.06 145.55 44.06L140.2 44.06L140.2 41.47L144.39 41.47C146.74 41.47 148.62 40.91 150.03 39.78C151.44 38.65 152.15 37.15 152.15 35.28C152.15 33.44 151.41 31.94 149.94 30.8C148.47 29.65 146.51 29.08 144.08 29.08C141.29 29.08 138.75 30.11 136.46 32.16L134.94 29.97C137.77 27.51 141.03 26.28 144.75 26.28C148.02 26.28 150.66 27.07 152.68 28.66C154.7 30.25 155.71 32.34 155.71 34.92C155.71 36.68 155.21 38.2 154.2 39.49C153.19 40.78 151.76 41.77 149.92 42.45ZM192.23 26.72L195.89 26.72L180.87 59.7L177.21 59.7L181.31 50.7L169.77 26.72L173.38 26.72L183.14 47.18L192.23 26.72ZM243.46 26.72L245.4 59.7L242.01 59.7L240.59 32.56L228.02 59.7L225.92 59.7L213.4 32.56L211.93 59.7L208.58 59.7L210.53 26.72L214.21 26.72L226.99 54.35L239.73 26.72L243.46 26.72ZM98.1 47.04L107 26.72L110.21 26.72L119.1 47.04L115.62 47.04L108.65 30.82L101.64 47.04L98.1 47.04ZM8.17 59.65C8.09 59.65 8.03 59.58 8.03 59.5C8.03 59.43 8.09 59.36 8.17 59.36C8.25 59.36 8.31 59.43 8.31 59.5C8.31 59.58 8.25 59.65 8.17 59.65Z" />
</svg>